Coordinates
version=1
nRows=16
nColumns=33
inDegrees=yes

Units are S.I. units (second, meters, Newtons, ...)
Angles are in degrees.

endheader
time	ground_thorax_rot_x	ground_thorax_rot_y	ground_thorax_rot_z	ground_thorax_tx	ground_thorax_ty	ground_thorax_tz	clav_prot_r	clav_elev_r	scapula_abduction_r	scapula_elevation_r	scapula_upward_rot_r	scapula_winging_r	shoulder_elv_r	plane_of_elev_r	axial_rot_r	elbow_flexion_r	pro_sup_r	wrist_flex_r	wrist_dev_r	clav_prot_l	clav_elev_l	scapula_abduction_l	scapula_elevation_l	scapula_upward_rot_l	scapula_winging_l	shoulder_elv_l	plane_of_elev_l	axial_rot_l	elbow_flexion_l	pro_sup_l	wrist_flex_l	wrist_dev_l
      9.96000000	    -31.93436818	    -17.71399908	     32.00746810	   -103.92333348	    785.64383367	      2.51647045	      7.63922798	    -37.96948759	     44.98127319	    -45.00000000	     45.00000000	   2498.41926838	  -2642.94869598	    -90.00000000	    -66.66397643	   1798.29859522	    -86.84111060	     17.17214037	      8.86610126	      9.97183325	     37.16173619	    -45.00000000	    -33.05192161	     -7.78282322	  -2417.96586427	   -288.82490517	     13.04217549	    179.99999979	   1083.33442251	    227.48528740	      7.38852812	    -14.76451956
      9.97000000	    -32.15578774	    -17.80290409	     32.12787173	   -101.55888543	    785.33282370	      2.68128683	      7.45621354	    -37.95447322	     44.65808255	    -45.00000000	     45.00000000	   2498.34057265	  -2642.67743892	    -90.00000000	    -66.91186981	   1798.52471177	    -86.46290256	     17.22621913	      8.82462416	     11.12141650	     36.90489520	    -45.00000000	    -33.02298950	    -10.77239643	  -2419.63435663	   -288.83402093	     13.40262033	    179.99999979	   1082.55172985	    228.78614989	      7.09488384	    -14.91885700
      9.98000000	    -32.29767664	    -17.97777074	     32.26189687	    -99.32777498	    785.11785404	      2.88533400	      7.50803509	    -37.97762185	     44.54772043	    -45.00000000	     45.00000000	   2498.24495315	  -2642.34495304	    -90.00000000	    -67.22274735	   1798.75107791	    -86.23708087	     17.29657671	      8.79012200	     11.52515619	     36.74916889	    -45.00000000	    -32.94185828	    -13.86488165	  -2421.43453946	   -288.49337922	     13.54659313	    179.99999979	   1081.57576672	    229.50667473	      6.78087843	    -15.06797943
      9.99000000	    -32.36386403	    -18.28088779	     32.37946613	    -97.25256367	    784.99166219	      3.12598993	      7.46050415	    -37.97380070	     44.55384370	    -45.00000000	     45.00000000	   2498.28474783	  -2641.80393923	    -90.00000000	    -67.74116722	   1799.20085205	    -86.08924123	     17.32517385	      8.79105942	     12.40477203	     36.51299076	    -44.37900266	    -33.08904826	    -16.24211544	  -2423.13517794	   -288.42141965	     14.06165342	    179.99999979	   1081.03939701	    229.89204437	      6.59665362	    -15.09842104
     10.00000000	    -32.46044201	    -18.57539166	     32.51078455	    -95.32032964	    784.94206711	      3.40362964	      7.25389680	    -37.91734000	     44.53373527	    -45.00000000	     45.00000000	   2498.33474547	  -2640.98937137	    -90.00000000	    -68.52782845	   1799.89697141	    -85.95914594	     17.18241139	      8.79242302	     13.45721393	     36.13977708	    -44.01382951	    -33.40404704	    -18.51246810	  -2424.73525138	   -288.37364091	     14.34069599	    179.99999979	   1080.56449406	    229.91732430	      6.39230644	    -15.04768817
     10.01000000	    -32.44994319	    -18.87994047	     32.63301243	    -93.53649650	    784.95695502	      3.71338026	      7.32105917	    -37.92100381	     44.65879284	    -45.00000000	     45.00000000	   2498.42089991	  -2640.33690144	    -90.00000000	    -69.15429744	   1800.40633974	    -85.84642122	     17.20140630	      8.79051416	     13.79077862	     35.91546662	    -43.50008665	    -33.53226980	    -20.56241755	  -2426.21211275	   -288.06252960	     14.68064691	    179.99999979	   1080.06270929	    229.67060170	      6.25134370	    -15.04038415
     10.02000000	    -32.46817931	    -19.17046325	     32.73285547	    -91.89902266	    785.02209556	      4.04949426	      7.35677747	    -37.92046715	     44.75909210	    -45.00000000	     45.00000000	   2498.46348023	  -2639.72304132	    -90.00000000	    -69.74311568	   1800.89384325	    -85.73699201	     17.20250434	      8.79010812	     14.11933027	     35.69663559	    -43.07174817	    -33.69829913	    -22.36741019	  -2427.53506749	   -287.73862700	     14.96200148	    179.99999979	   1079.61794518	    229.23180593	      6.12317717	    -15.00814157
     10.03000000	    -32.48243382	    -19.41829313	     32.81348096	    -90.40363181	    785.12407597	      4.40549878	      7.37325344	    -37.91126568	     44.85961738	    -45.00000000	     45.00000000	   2498.54425913	  -2639.07359553	    -90.00000000	    -70.36817823	   1801.41758270	    -85.62802016	     17.18940983	      8.79057559	     14.39275200	     35.48589926	    -42.77058841	    -33.81010790	    -23.80875055	  -2428.58286603	   -287.43611348	     15.16971405	    179.99999979	   1079.26762415	    228.65295646	      6.01845680	    -14.95718942
     10.04000000	    -32.49898453	    -19.59642768	     32.85063780	    -89.04327627	    785.25085749	      4.77470496	      7.36526214	    -37.88575725	     44.94782904	    -45.00000000	     45.00000000	   2498.68542197	  -2638.32616155	    -90.00000000	    -71.09055298	   1802.03808503	    -85.49137971	     17.17325769	      8.79640838	     14.68715291	     35.26404052	    -42.62643446	    -33.83689042	    -24.83903162	  -2429.29414065	   -287.23103544	     15.33018373	    179.99999979	   1079.05377735	    227.95023260	      5.95156251	    -14.88825879
     10.05000000	    -32.51205968	    -19.70330114	     32.85316848	    -87.80891109	    785.39293128	      5.15081969	      7.34166951	    -37.85301122	     45.00000000	    -45.00000000	     45.00000000	   2498.89414675	  -2637.54786720	    -90.00000000	    -71.84387637	   1802.67517327	    -85.30022595	     17.15890409	      8.79275036	     14.85145177	     35.05431134	    -42.58911699	    -33.76595989	    -25.52588573	  -2429.76337713	   -287.06150231	     15.43288797	    179.99999979	   1078.91575019	    227.18247517	      5.91020902	    -14.82252073
     10.06000000	    -32.48180803	    -19.98103828	     32.95057792	    -86.69202546	    785.54350478	      5.52817031	      7.42846921	    -37.84025010	     45.00000000	    -45.00000000	     45.00000000	   2499.06449554	  -2637.09899559	    -90.00000000	    -72.27488642	   1803.16749760	    -85.09610218	     16.94339694	      8.77492670	     14.26401612	     34.73355425	    -42.27608736	    -33.81497566	    -25.89140681	  -2430.63634021	   -286.71010775	     15.03108946	    179.99999979	   1078.72193879	    226.57871231	      5.76554246	    -14.76464578
     10.07000000	    -32.47284437	    -20.07809986	     33.00548774	    -85.68076062	    785.69852663	      5.90362774	      7.36284900	    -37.81212708	     45.00000000	    -45.00000000	     45.00000000	   2499.20454733	  -2636.48893783	    -90.00000000	    -72.86745795	   1803.66938159	    -84.88913158	     16.96785529	      8.77825232	     14.59929647	     34.57987393	    -42.30679239	    -33.69632142	    -26.38022556	  -2430.79716277	   -286.65422140	     15.21505917	    179.99999979	   1078.66599331	    225.91186384	      5.74216212	    -14.71604612
     10.08000000	    -32.51640324	    -20.00577446	     32.92024063	    -84.77295417	    785.85538703	      6.27215155	      7.29260514	    -37.76750182	     45.00000000	    -45.00000000	     45.00000000	   2499.47407444	  -2635.68938981	    -90.00000000	    -73.64842304	   1804.27189266	    -84.61413585	     17.00438067	      8.75774687	     14.77052756	     34.45534311	    -42.53633128	    -33.43576303	    -26.52806649	  -2430.77324935	   -286.60876065	     15.30571095	    179.99999979	   1078.64811341	    225.12615082	      5.75964204	    -14.68576546
     10.09000000	    -32.52027395	    -19.97734648	     32.80695915	    -83.95662908	    786.01463363	      6.63367649	      7.24392082	    -37.71368945	     45.00000000	    -45.00000000	     45.00000000	   2499.78095801	  -2634.92928038	    -90.00000000	    -74.39115163	   1804.98500571	    -84.26076891	     16.92253067	      8.75240371	     14.74328657	     34.18319472	    -42.63429632	    -33.21557296	    -26.33366444	  -2430.77269670	   -286.63906206	     15.24651822	    179.99999979	   1078.81357164	    224.37165382	      5.78294319	    -14.62041849
     10.10000000	    -32.59647356	    -19.88383635	     32.69617257	    -83.22699364	    786.17606766	      6.98654903	      7.21690299	    -37.66305224	     45.00000000	    -45.00000000	     45.00000000	   2499.92477785	  -2634.25726978	    -90.00000000	    -75.04787012	   1805.53702143	    -83.86994627	     16.78476044	      8.72046520	     14.61673235	     33.88589892	    -42.55146165	    -33.10910975	    -26.00637438	  -2430.95897148	   -286.70330302	     15.33453008	    179.99999979	   1078.97204252	    223.69053043	      5.81155226	    -14.56569429
     10.11000000	    -32.60176616	    -19.72944951	     32.48496633	    -82.57927313	    786.33904697	      7.32956359	      7.09138814	    -37.59824937	     45.00000000	    -45.00000000	     45.00000000	   2500.37137898	  -2633.29991999	    -90.00000000	    -75.98617500	   1806.19350628	    -83.33200766	     16.88861245	      8.67103582	     14.84499893	     33.88345198	    -43.22437797	    -32.61765263	    -25.83624313	  -2430.27378010	   -286.76054645	     15.22945077	    179.99999979	   1078.89736209	    222.82445011	      5.84749023	    -14.55958066
